<svg width="56" height="56" viewBox="0 0 56 56" fill="none" xmlns="http://www.w3.org/2000/svg">
<g clip-path="url(#clip0_1026_69)">
<path d="M56 28C56 12.536 43.464 0 28 0C12.536 0 0 12.536 0 28C0 43.464 12.536 56 28 56C43.464 56 56 43.464 56 28Z" fill="white"/>
<path d="M47.611 24.083H46V24H28V32H39.303C37.654 36.657 33.223 40 28 40C21.373 40 16 34.627 16 28C16 21.373 21.373 16 28 16C31.059 16 33.842 17.154 35.961 19.039L41.618 13.382C38.046 10.053 33.268 8 28 8C16.955 8 8 16.955 8 28C8 39.045 16.955 48 28 48C39.045 48 48 39.045 48 28C48 26.659 47.862 25.35 47.611 24.083Z" fill="#FFC107"/>
<path d="M10.306 18.691L16.877 23.51C18.655 19.108 22.961 16 28 16C31.059 16 33.842 17.154 35.961 19.039L41.618 13.382C38.046 10.053 33.268 8 28 8C20.318 8 13.656 12.337 10.306 18.691Z" fill="#FF3D00"/>
<path d="M28 48C33.166 48 37.86 46.023 41.409 42.808L35.219 37.57C33.211 39.091 30.715 40 28 40C22.798 40 18.381 36.683 16.717 32.054L10.195 37.079C13.505 43.556 20.227 48 28 48Z" fill="#4CAF50"/>
<path d="M47.611 24.083H46V24H28V32H39.303C38.511 34.237 37.072 36.166 35.216 37.571L35.219 37.569L41.409 42.807C40.971 43.205 48 38 48 28C48 26.659 47.862 25.35 47.611 24.083Z" fill="#1976D2"/>
</g>
<defs>
<clipPath id="clip0_1026_69">
<rect width="56" height="56" fill="white"/>
</clipPath>
</defs>
</svg>
