<svg width="56" height="56" viewBox="0 0 56 56" fill="none" xmlns="http://www.w3.org/2000/svg">
<g clip-path="url(#clip0_916_6)">
<path d="M56 28C56 12.536 43.464 0 28 0C12.536 0 0 12.536 0 28C0 43.464 12.536 56 28 56C43.464 56 56 43.464 56 28Z" fill="#0077FF"/>
<path d="M12.2857 27.3714C12.2857 20.2599 12.2857 16.7042 14.495 14.495C16.7042 12.2857 20.2599 12.2857 27.3714 12.2857H28.6286C35.74 12.2857 39.2958 12.2857 41.505 14.495C43.7143 16.7042 43.7143 20.2599 43.7143 27.3714V28.6286C43.7143 35.74 43.7143 39.2958 41.505 41.505C39.2958 43.7143 35.74 43.7143 28.6286 43.7143H27.3714C20.2599 43.7143 16.7042 43.7143 14.495 41.505C12.2857 39.2958 12.2857 35.74 12.2857 28.6286V27.3714Z" fill="white"/>
<path d="M29.0093 35C21.8344 35 17.742 30.0665 17.5715 21.8572H21.1655C21.2835 27.8826 23.9331 30.4349 26.0317 30.9611V21.8572H29.416V27.0538C31.4884 26.8301 33.6656 24.4621 34.4001 21.8572H37.7843C37.2203 25.0672 34.8593 27.4353 33.1803 28.4089C34.8593 29.1982 37.5484 31.2637 38.5715 35H34.8462C34.0461 32.5004 32.0525 30.5664 29.416 30.3033V35H29.0093Z" fill="#0077FF"/>
</g>
<defs>
<clipPath id="clip0_916_6">
<rect width="56" height="56" rx="8" fill="white"/>
</clipPath>
</defs>
</svg>
