<svg width="68" height="68" viewBox="0 0 68 68" fill="none" xmlns="http://www.w3.org/2000/svg">
<g clip-path="url(#clip0_1021_49)">
<path d="M68 34C68 15.2223 52.7777 0 34 0C15.2223 0 0 15.2223 0 34C0 52.7777 15.2223 68 34 68C52.7777 68 68 52.7777 68 34Z" fill="#FC3F1D"/>
<path d="M39.0131 19.0412H35.5722C29.6735 19.0412 26.724 21.9906 26.724 26.4148C26.724 31.3304 28.6903 33.7883 33.1144 36.7376L36.5554 39.1955L26.724 54.434H18.859L28.1988 40.6702C22.7916 36.7376 19.8421 33.2967 19.8421 26.9064C19.8421 19.0412 25.2493 13.634 35.5722 13.634H45.8952V54.434H39.0131V19.0412Z" fill="white"/>
</g>
<defs>

</defs>
</svg>
